<mxfile host="app.diagrams.net" modified="2023-10-05T18:53:27.731Z" agent="Mozilla/5.0 (Windows NT 10.0; Win64; x64) AppleWebKit/537.36 (KHTML, like Gecko) Chrome/116.0.0.0 Safari/537.36 OPR/102.0.0.0" etag="uva6BEqznB77OhUI_idy" version="21.7.4" type="device">
  <diagram name="1 oldal" id="6Xggc8OWEDJRXR-4AHBh">
    <mxGraphModel dx="431" dy="764" grid="1" gridSize="10" guides="1" tooltips="1" connect="1" arrows="1" fold="1" page="1" pageScale="1" pageWidth="827" pageHeight="1169" math="0" shadow="0">
      <root>
        <mxCell id="0" />
        <mxCell id="1" parent="0" />
        <mxCell id="fYq1N4mjWW2RGzYLDucV-3" value="" style="edgeStyle=orthogonalEdgeStyle;rounded=0;orthogonalLoop=1;jettySize=auto;html=1;" edge="1" parent="1" source="fYq1N4mjWW2RGzYLDucV-1" target="fYq1N4mjWW2RGzYLDucV-2">
          <mxGeometry relative="1" as="geometry" />
        </mxCell>
        <mxCell id="fYq1N4mjWW2RGzYLDucV-1" value="start" style="ellipse;whiteSpace=wrap;html=1;" vertex="1" parent="1">
          <mxGeometry x="255" y="10" width="120" height="80" as="geometry" />
        </mxCell>
        <mxCell id="fYq1N4mjWW2RGzYLDucV-5" value="" style="edgeStyle=orthogonalEdgeStyle;rounded=0;orthogonalLoop=1;jettySize=auto;html=1;" edge="1" parent="1" source="fYq1N4mjWW2RGzYLDucV-2" target="fYq1N4mjWW2RGzYLDucV-4">
          <mxGeometry relative="1" as="geometry" />
        </mxCell>
        <mxCell id="fYq1N4mjWW2RGzYLDucV-2" value="be: lista = [] , n:egÃ©sz , Ttul()" style="shape=parallelogram;perimeter=parallelogramPerimeter;whiteSpace=wrap;html=1;fixedSize=1;" vertex="1" parent="1">
          <mxGeometry x="220" y="130" width="190" height="80" as="geometry" />
        </mxCell>
        <mxCell id="fYq1N4mjWW2RGzYLDucV-7" value="" style="edgeStyle=orthogonalEdgeStyle;rounded=0;orthogonalLoop=1;jettySize=auto;html=1;" edge="1" parent="1" source="fYq1N4mjWW2RGzYLDucV-4" target="fYq1N4mjWW2RGzYLDucV-6">
          <mxGeometry relative="1" as="geometry" />
        </mxCell>
        <mxCell id="fYq1N4mjWW2RGzYLDucV-4" value="Vane = false , i =&amp;nbsp; 0" style="whiteSpace=wrap;html=1;" vertex="1" parent="1">
          <mxGeometry x="255" y="240" width="120" height="60" as="geometry" />
        </mxCell>
        <mxCell id="fYq1N4mjWW2RGzYLDucV-10" value="" style="edgeStyle=orthogonalEdgeStyle;rounded=0;orthogonalLoop=1;jettySize=auto;html=1;" edge="1" parent="1" source="fYq1N4mjWW2RGzYLDucV-6" target="fYq1N4mjWW2RGzYLDucV-9">
          <mxGeometry relative="1" as="geometry" />
        </mxCell>
        <mxCell id="fYq1N4mjWW2RGzYLDucV-14" value="" style="edgeStyle=orthogonalEdgeStyle;rounded=0;orthogonalLoop=1;jettySize=auto;html=1;" edge="1" parent="1" source="fYq1N4mjWW2RGzYLDucV-6" target="fYq1N4mjWW2RGzYLDucV-13">
          <mxGeometry relative="1" as="geometry" />
        </mxCell>
        <mxCell id="fYq1N4mjWW2RGzYLDucV-6" value="i &amp;lt; n and !(Ttul(lista[i]))" style="rhombus;whiteSpace=wrap;html=1;" vertex="1" parent="1">
          <mxGeometry x="236.25" y="330" width="157.5" height="160" as="geometry" />
        </mxCell>
        <mxCell id="fYq1N4mjWW2RGzYLDucV-8" value="I" style="text;html=1;align=center;verticalAlign=middle;resizable=0;points=[];autosize=1;strokeColor=none;fillColor=none;" vertex="1" parent="1">
          <mxGeometry x="355" y="338" width="30" height="30" as="geometry" />
        </mxCell>
        <mxCell id="fYq1N4mjWW2RGzYLDucV-11" style="edgeStyle=orthogonalEdgeStyle;rounded=0;orthogonalLoop=1;jettySize=auto;html=1;entryX=0.5;entryY=1;entryDx=0;entryDy=0;" edge="1" parent="1" source="fYq1N4mjWW2RGzYLDucV-9" target="fYq1N4mjWW2RGzYLDucV-6">
          <mxGeometry relative="1" as="geometry">
            <mxPoint x="310" y="580" as="targetPoint" />
            <Array as="points">
              <mxPoint x="530" y="530" />
              <mxPoint x="531" y="530" />
              <mxPoint x="531" y="580" />
              <mxPoint x="315" y="580" />
            </Array>
          </mxGeometry>
        </mxCell>
        <mxCell id="fYq1N4mjWW2RGzYLDucV-9" value="i++" style="whiteSpace=wrap;html=1;" vertex="1" parent="1">
          <mxGeometry x="470" y="380" width="120" height="60" as="geometry" />
        </mxCell>
        <mxCell id="fYq1N4mjWW2RGzYLDucV-12" value="H" style="text;html=1;align=center;verticalAlign=middle;resizable=0;points=[];autosize=1;strokeColor=none;fillColor=none;" vertex="1" parent="1">
          <mxGeometry x="250" y="338" width="30" height="30" as="geometry" />
        </mxCell>
        <mxCell id="fYq1N4mjWW2RGzYLDucV-16" value="" style="edgeStyle=orthogonalEdgeStyle;rounded=0;orthogonalLoop=1;jettySize=auto;html=1;" edge="1" parent="1" source="fYq1N4mjWW2RGzYLDucV-13" target="fYq1N4mjWW2RGzYLDucV-15">
          <mxGeometry relative="1" as="geometry" />
        </mxCell>
        <mxCell id="fYq1N4mjWW2RGzYLDucV-13" value="Vane = i &amp;lt; n" style="whiteSpace=wrap;html=1;" vertex="1" parent="1">
          <mxGeometry x="17.5" y="380" width="120" height="60" as="geometry" />
        </mxCell>
        <mxCell id="fYq1N4mjWW2RGzYLDucV-18" value="" style="edgeStyle=orthogonalEdgeStyle;rounded=0;orthogonalLoop=1;jettySize=auto;html=1;" edge="1" parent="1" source="fYq1N4mjWW2RGzYLDucV-15" target="fYq1N4mjWW2RGzYLDucV-17">
          <mxGeometry relative="1" as="geometry" />
        </mxCell>
        <mxCell id="fYq1N4mjWW2RGzYLDucV-15" value="ki: Vane" style="shape=parallelogram;perimeter=parallelogramPerimeter;whiteSpace=wrap;html=1;fixedSize=1;" vertex="1" parent="1">
          <mxGeometry x="17.5" y="480" width="120" height="60" as="geometry" />
        </mxCell>
        <mxCell id="fYq1N4mjWW2RGzYLDucV-17" value="end" style="ellipse;whiteSpace=wrap;html=1;" vertex="1" parent="1">
          <mxGeometry x="17.5" y="570" width="120" height="80" as="geometry" />
        </mxCell>
      </root>
    </mxGraphModel>
  </diagram>
</mxfile>
